<mxfile host="app.diagrams.net" modified="2024-05-16T10:46:57.353Z" agent="Mozilla/5.0 (Windows NT 10.0; Win64; x64) AppleWebKit/537.36 (KHTML, like Gecko) Chrome/124.0.0.0 Safari/537.36" etag="tzqCiKxEiCQjWgMQxtRI" version="24.3.1" type="google">
  <diagram name="Page-1" id="O-109bV0ZU06yiMruQCl">
    <mxGraphModel grid="1" page="1" gridSize="10" guides="1" tooltips="1" connect="1" arrows="1" fold="1" pageScale="1" pageWidth="827" pageHeight="1169" math="0" shadow="0">
      <root>
        <mxCell id="0" />
        <mxCell id="1" parent="0" />
        <mxCell id="tdISbU3QcUcJ55vKMBew-1" value="" style="rounded=0;whiteSpace=wrap;html=1;" vertex="1" parent="1">
          <mxGeometry x="260" y="230" width="290" height="330" as="geometry" />
        </mxCell>
        <mxCell id="tdISbU3QcUcJ55vKMBew-2" value="Executive Chef" style="shape=umlActor;verticalLabelPosition=bottom;verticalAlign=top;html=1;outlineConnect=0;" vertex="1" parent="1">
          <mxGeometry x="170" y="340" width="30" height="60" as="geometry" />
        </mxCell>
        <mxCell id="tdISbU3QcUcJ55vKMBew-5" value="checks Kitchen inventory on Monday" style="ellipse;whiteSpace=wrap;html=1;" vertex="1" parent="1">
          <mxGeometry x="290" y="240" width="100" height="50" as="geometry" />
        </mxCell>
        <mxCell id="tdISbU3QcUcJ55vKMBew-15" value="Deliveries arrive throughout the day" style="ellipse;whiteSpace=wrap;html=1;" vertex="1" parent="1">
          <mxGeometry x="430" y="290" width="110" height="60" as="geometry" />
        </mxCell>
        <mxCell id="tdISbU3QcUcJ55vKMBew-17" value="decides what needs replenishing" style="ellipse;whiteSpace=wrap;html=1;" vertex="1" parent="1">
          <mxGeometry x="300" y="305" width="80" height="50" as="geometry" />
        </mxCell>
        <mxCell id="tdISbU3QcUcJ55vKMBew-23" value="" style="endArrow=none;html=1;rounded=0;entryX=0;entryY=0.5;entryDx=0;entryDy=0;" edge="1" parent="1" target="tdISbU3QcUcJ55vKMBew-5">
          <mxGeometry width="50" height="50" relative="1" as="geometry">
            <mxPoint x="200" y="370" as="sourcePoint" />
            <mxPoint x="250" y="320" as="targetPoint" />
          </mxGeometry>
        </mxCell>
        <mxCell id="tdISbU3QcUcJ55vKMBew-24" value="" style="endArrow=none;html=1;rounded=0;entryX=0;entryY=0.5;entryDx=0;entryDy=0;" edge="1" parent="1" target="tdISbU3QcUcJ55vKMBew-17">
          <mxGeometry width="50" height="50" relative="1" as="geometry">
            <mxPoint x="200" y="370" as="sourcePoint" />
            <mxPoint x="290" y="415" as="targetPoint" />
          </mxGeometry>
        </mxCell>
        <mxCell id="tdISbU3QcUcJ55vKMBew-26" value="" style="endArrow=none;html=1;rounded=0;entryX=0;entryY=0.3333333333333333;entryDx=0;entryDy=0;entryPerimeter=0;exitX=1;exitY=0.5;exitDx=0;exitDy=0;" edge="1" parent="1" source="tdISbU3QcUcJ55vKMBew-15">
          <mxGeometry width="50" height="50" relative="1" as="geometry">
            <mxPoint x="540" y="372.5" as="sourcePoint" />
            <mxPoint x="620" y="385" as="targetPoint" />
          </mxGeometry>
        </mxCell>
        <mxCell id="tdISbU3QcUcJ55vKMBew-29" value="Food supplier" style="shape=umlActor;verticalLabelPosition=bottom;verticalAlign=top;html=1;outlineConnect=0;" vertex="1" parent="1">
          <mxGeometry x="620" y="355" width="30" height="60" as="geometry" />
        </mxCell>
        <mxCell id="tdISbU3QcUcJ55vKMBew-30" value="delivered through the back door" style="ellipse;whiteSpace=wrap;html=1;" vertex="1" parent="1">
          <mxGeometry x="430" y="390" width="110" height="60" as="geometry" />
        </mxCell>
        <mxCell id="tdISbU3QcUcJ55vKMBew-31" value="controls quality of delivery" style="ellipse;whiteSpace=wrap;html=1;" vertex="1" parent="1">
          <mxGeometry x="300" y="370" width="80" height="50" as="geometry" />
        </mxCell>
        <mxCell id="tdISbU3QcUcJ55vKMBew-32" value="" style="endArrow=none;html=1;rounded=0;entryX=0;entryY=0.5;entryDx=0;entryDy=0;" edge="1" parent="1" target="tdISbU3QcUcJ55vKMBew-31">
          <mxGeometry width="50" height="50" relative="1" as="geometry">
            <mxPoint x="200" y="370" as="sourcePoint" />
            <mxPoint x="310" y="395" as="targetPoint" />
          </mxGeometry>
        </mxCell>
        <mxCell id="tdISbU3QcUcJ55vKMBew-33" value="" style="endArrow=none;html=1;rounded=0;entryX=1;entryY=0.5;entryDx=0;entryDy=0;" edge="1" parent="1" target="tdISbU3QcUcJ55vKMBew-30">
          <mxGeometry width="50" height="50" relative="1" as="geometry">
            <mxPoint x="620" y="380" as="sourcePoint" />
            <mxPoint x="630" y="395" as="targetPoint" />
          </mxGeometry>
        </mxCell>
        <mxCell id="tdISbU3QcUcJ55vKMBew-34" value="stores frozen items in walk-in freezer" style="ellipse;whiteSpace=wrap;html=1;" vertex="1" parent="1">
          <mxGeometry x="300" y="430" width="80" height="50" as="geometry" />
        </mxCell>
        <mxCell id="tdISbU3QcUcJ55vKMBew-35" value="stores other food in two large refrigerators" style="ellipse;whiteSpace=wrap;html=1;" vertex="1" parent="1">
          <mxGeometry x="280" y="490" width="120" height="50" as="geometry" />
        </mxCell>
        <mxCell id="JgkM7dVadW00O-qA2rpu-1" value="" style="endArrow=none;html=1;rounded=0;entryX=0;entryY=0.5;entryDx=0;entryDy=0;" edge="1" parent="1" target="tdISbU3QcUcJ55vKMBew-34">
          <mxGeometry width="50" height="50" relative="1" as="geometry">
            <mxPoint x="200" y="370" as="sourcePoint" />
            <mxPoint x="300" y="407.5" as="targetPoint" />
          </mxGeometry>
        </mxCell>
        <mxCell id="JgkM7dVadW00O-qA2rpu-2" value="" style="endArrow=none;html=1;rounded=0;entryX=0;entryY=0.5;entryDx=0;entryDy=0;" edge="1" parent="1" target="tdISbU3QcUcJ55vKMBew-35">
          <mxGeometry width="50" height="50" relative="1" as="geometry">
            <mxPoint x="200" y="370" as="sourcePoint" />
            <mxPoint x="320" y="415" as="targetPoint" />
          </mxGeometry>
        </mxCell>
      </root>
    </mxGraphModel>
  </diagram>
</mxfile>
